<svg xmlns:xlink="http://www.w3.org/1999/xlink" xmlns="http://www.w3.org/2000/svg" viewBox="0 0 32 32" class="icon" width="32"  height="32" >
        <g fill="#002837">
            <path class="path1" d="M22.304 7.342c0 3.705-3.004 6.709-6.709 6.709s-6.709-3.004-6.709-6.709c0-3.705 3.004-6.709 6.709-6.709s6.709 3.004 6.709 6.709z" fill="#002837"></path>
            <path class="path2" d="M23.146 14.139c-1.928 1.883-4.568 3.044-7.479 3.044-0.003 0-0.006 0-0.009 0-0.002 0-0.005 0-0.007 0-2.861 0-5.457-1.129-7.369-2.965-3.093 2.214-5.094 5.787-5.117 9.829v8.231h25.316v-8.228c-0.065-4.107-2.146-7.715-5.294-9.885z" fill="#002837"></path>
        </g>
    </svg>