<svg xmlns:xlink="http://www.w3.org/1999/xlink" xmlns="http://www.w3.org/2000/svg" viewBox="0 0 32 32" class="icon" width="32"  height="32" >
        <g fill="#002837">
            <path class="path1" d="M30.43 27.962l-8.392-8.386c1.609-2 2.582-4.571 2.582-7.369 0-6.519-5.285-11.804-11.804-11.804s-11.804 5.285-11.804 11.804c0 6.519 5.285 11.804 11.804 11.804 2.533 0 4.88-0.798 6.803-2.156l8.431 8.487c0.3 0.283 0.706 0.457 1.153 0.457 0.93 0 1.684-0.754 1.684-1.684 0-0.447-0.174-0.852-0.458-1.154zM4.43 12.228c0-4.645 3.766-8.411 8.411-8.411s8.411 3.766 8.411 8.411c0 4.643-3.762 8.408-8.405 8.411-4.647 0-8.414-3.765-8.418-8.411z" fill="#002837"></path>
        </g>
    </svg>